<svg width="198" height="65" viewBox="0 0 198 65" fill="none" xmlns="http://www.w3.org/2000/svg">
<path d="M32.5 62C49.3447 62 63 48.3447 63 31.5C63 14.6553 49.3447 1 32.5 1C15.6553 1 2 14.6553 2 31.5C2 48.3447 15.6553 62 32.5 62Z" fill="#B9FF66"/>
<path d="M46 52V17H52.492L67.1158 50.1006H67.7267V17H71V52H64.508L49.8842 18.8491H49.2733V52H46Z" fill="black"/>
<path d="M78 52V17H98.8021V19.8994H81.1485V33H97.4258V35.8994H81.1485V49.1006H99V52H78Z" fill="black"/>
<path d="M117 53C112.734 53 109.334 51.7725 106.8 49.3176C104.267 46.8605 103 43.2601 103 38.5165V30.4867C103 25.7431 104.267 22.1427 106.8 19.6856C109.334 17.2285 112.734 16 117 16C121.268 16 124.669 17.2285 127.203 19.6856C129.734 22.1427 131 25.7431 131 30.4867V38.5165C131 43.2601 129.734 46.8605 127.203 49.3176C124.669 51.7725 121.268 53 117 53ZM117 50.0528C120.4 50.0528 123.028 49.0533 124.885 47.0544C126.743 45.0555 127.671 42.2436 127.671 38.6187V30.3844C127.671 26.7596 126.743 23.9477 124.885 21.9488C123.028 19.9477 120.4 18.9472 117 18.9472C113.635 18.9472 111.015 19.9477 109.141 21.9488C107.268 23.9477 106.332 26.7596 106.332 30.3844V38.6187C106.332 42.2436 107.268 45.0555 109.141 47.0544C111.015 49.0533 113.635 50.0528 117 50.0528Z" fill="black"/>
<path d="M136 52V17H157V19.8994H139.229V33H155.536V35.8994H139.229V52H136Z" fill="black"/>
<path d="M161 52V17H165V52H161Z" fill="black"/>
<path d="M179.875 52V19.8994H168V17H195V19.8994H183.125V52H179.875Z" fill="black"/>
<path d="M46 63H195H46Z" fill="black"/>
<path d="M46 63H195" stroke="#B9FF66" stroke-width="3"/>
</svg>
